<svg width="108" height="108" viewBox="0 0 108 108" fill="none" xmlns="http://www.w3.org/2000/svg">
<g clip-path="url(#clip0_80_105)">
<mask id="mask0_80_105" style="mask-type:luminance" maskUnits="userSpaceOnUse" x="0" y="0" width="108" height="108">
<path d="M86 0H22C9.84974 0 0 9.84974 0 22V86C0 98.1503 9.84974 108 22 108H86C98.1503 108 108 98.1503 108 86V22C108 9.84974 98.1503 0 86 0Z" fill="white"/>
</mask>
<g mask="url(#mask0_80_105)">
<mask id="mask1_80_105" style="mask-type:luminance" maskUnits="userSpaceOnUse" x="0" y="0" width="108" height="108">
<path d="M85.8892 0H22.1108C9.89934 0 0 9.89934 0 22.1108V85.8892C0 98.1007 9.89934 108 22.1108 108H85.8892C98.1007 108 108 98.1007 108 85.8892V22.1108C108 9.89934 98.1007 0 85.8892 0Z" fill="white"/>
</mask>
<g mask="url(#mask1_80_105)">
<path d="M72.6227 0H35.5882C23.205 0 17.0134 0 12.2837 2.40993C8.12323 4.52977 4.74071 7.9123 2.62087 12.0727C0.210938 16.8025 0.210938 22.9941 0.210938 35.3773V72.6227C0.210938 85.0059 0.210938 91.1975 2.62087 95.9273C4.74071 100.088 8.12323 103.47 12.2837 105.59C17.0134 108 23.205 108 35.5882 108H72.6227C85.0059 108 91.1975 108 95.9273 105.59C100.088 103.47 103.47 100.088 105.59 95.9273C108 91.1975 108 85.0059 108 72.6227V35.3773C108 22.9941 108 16.8025 105.59 12.0727C103.47 7.9123 100.088 4.52977 95.9273 2.40993C91.1975 0 85.0059 0 72.6227 0Z" fill="#FFF6E7"/>
<path fill-rule="evenodd" clip-rule="evenodd" d="M21.4626 47.4524C19.504 40.7224 21.1272 35.8253 26.3321 32.7609C31.1898 29.9008 36.4831 29.6238 42.2117 31.9298C43.0857 32.2817 43.9369 32.6879 44.7602 33.1461C50.8526 36.5371 56.1573 41.6664 60.6743 48.534C63.4413 52.741 65.6853 57.1537 67.4062 61.7723C70.2257 69.3387 67.7374 77.8585 61.2886 82.718C57.4098 85.6409 52.1337 85.8803 48.0061 83.3209C41.6997 79.4103 36.4292 74.8317 32.1946 69.5849C27.167 63.3555 23.6681 56.2692 21.6979 48.3258C21.6253 48.0331 21.5469 47.7419 21.4626 47.4524Z" fill="#7D75B7"/>
<path fill-rule="evenodd" clip-rule="evenodd" d="M54.4224 118.569C53.6724 124.526 53.067 127.155 52.6063 126.455C52.1681 125.79 52.0271 122.922 52.1833 117.852C52.2195 116.677 52.3474 115.506 52.566 114.351C53.6661 108.537 54.5824 101.704 55.3151 93.8536C55.7657 89.025 55.5417 84.5888 55.7586 79.9045C55.8712 77.4731 56.1551 73.763 56.6105 68.7742C57.2767 66.7417 57.7767 65.74 58.1104 65.7692C58.4394 65.798 58.6215 66.8299 58.6567 68.8651C58.6575 68.914 58.6582 68.9628 58.6587 69.0117C58.7666 79.0075 58.4779 88.0628 57.7925 96.1775C57.1467 103.824 56.1572 110.535 54.8238 116.312C54.6519 117.057 54.5179 117.81 54.4224 118.569Z" fill="#7D75B7"/>
<path fill-rule="evenodd" clip-rule="evenodd" d="M82.8733 27.1092C77.4057 23.6936 71.7178 23.3624 65.8095 26.1156C64.8246 26.5745 63.874 27.104 62.9654 27.6998C57.7389 31.1273 52.9436 36.2882 48.5793 43.1827C41.6453 54.1369 40.5714 57.6661 40.7312 63.4037C40.891 69.1413 44.0627 74.1036 48.5617 77.3723C52.5161 80.2454 57.8573 80.2956 61.8651 77.4974C68.1861 73.0842 73.4217 68.2127 77.5718 62.8829C85.0954 53.2207 91.9554 32.7828 82.8733 27.1092Z" fill="#FFBABC"/>
</g>
</g>
<path d="M86 0.5H22C10.1259 0.5 0.5 10.1259 0.5 22V86C0.5 97.8741 10.1259 107.5 22 107.5H86C97.8741 107.5 107.5 97.8741 107.5 86V22C107.5 10.1259 97.8741 0.5 86 0.5Z" stroke="#D8D8D8"/>
<rect width="108" height="108" rx="23.9013" fill="white"/>
<path d="M33.4705 66.235C33.1 66.2592 32.7604 66.0336 32.6337 65.6846L29.8903 58.1248C29.5985 57.3208 28.4334 57.4111 28.2691 58.2505L27.2106 63.6582L26.7247 65.8534C26.6473 66.2031 26.3584 66.4663 26.0021 66.5029C24.4016 66.6675 21.8226 66.8452 18.2649 67.0359C17.9033 67.0553 17.5689 66.8413 17.4354 66.5047L9.98348 47.7067L8.9991 44.7217C8.82896 44.2058 9.18363 43.6658 9.7247 43.6171L15.1361 43.1296L17.9175 42.9053C18.3116 42.8736 18.6749 43.1197 18.7915 43.4976L21.3436 51.7674C21.6025 52.6066 22.8116 52.541 22.9782 51.6787L24.5571 43.5079C24.6295 43.1334 24.9441 42.8541 25.3245 42.8265L31.3334 42.391C31.7084 42.3638 32.0562 42.588 32.1861 42.9409L35.0476 50.7109C35.3402 51.5053 36.4899 51.422 36.6649 50.5937L38.323 42.7447C38.4012 42.3746 38.7162 42.1018 39.0937 42.0772L46.1957 41.6143C46.7715 41.5768 47.2143 42.1154 47.066 42.6731L41.1263 65.0067C41.0429 65.3206 40.7869 65.5576 40.4649 65.5995C39.8193 65.6835 38.7556 65.7925 37.2736 65.9263C35.6717 66.0712 34.404 66.1741 33.4705 66.235Z" fill="url(#paint0_linear_80_105)"/>
<path d="M73.226 42.5528L75.2285 42.8108C75.6433 42.8642 75.9616 43.2149 75.9111 43.63C75.9066 43.6668 75.9017 43.7039 75.8965 43.7411L75.5239 45.8249L73.8817 64.6786C73.8405 65.1516 73.4173 65.4975 72.9456 65.4437L70.8167 65.2012C70.812 65.2006 70.8083 65.2002 70.8036 65.1996C70.6665 65.1816 68.1942 64.8583 63.3868 64.2294C62.955 64.1729 62.636 63.7966 62.687 63.3641C62.6991 63.2613 62.7129 63.1535 62.7283 63.0409C62.7351 62.9912 62.7377 62.9436 62.7364 62.8934C62.7152 62.1188 62.5969 55.1624 64.6763 42.3469C64.7465 41.9139 65.1386 41.6031 65.5755 41.6423C67.7398 41.8367 70.2899 42.1401 73.226 42.5528Z" fill="#FFB800"/>
<circle cx="71.0577" cy="33.49" r="6.22266" transform="rotate(8 71.0577 33.49)" fill="#FFB800"/>
<path d="M57.8112 47.0467C57.8331 46.5893 58.2158 46.2328 58.6736 46.2435L59.3169 46.2585L66.3449 46.0165C66.8345 45.9997 67.2354 46.4019 67.2171 46.8914L66.7797 58.5661L66.5229 69.9657C66.5127 70.4165 66.15 70.7796 65.6993 70.7902L57.9679 70.9727C57.4943 70.9839 57.1041 70.6034 57.1078 70.1296C57.1208 68.4975 57.1694 66.5572 57.2536 64.3088C57.2715 63.8299 56.8886 63.4311 56.4093 63.4311L51.1017 63.4311C50.6509 63.4311 50.2797 63.7854 50.2588 64.2357L49.9917 69.995C49.9714 70.4336 49.618 70.7834 49.1792 70.7991L41.7959 71.0642C41.3183 71.0813 40.9217 70.6991 40.9243 70.2213C40.934 68.441 40.9725 66.3483 41.0397 63.9432L41.3147 54.3156C41.3234 53.9628 41.3801 52.6256 41.4849 50.3041C41.5541 48.7611 41.6024 47.6338 41.6297 46.9222C41.6463 46.4876 41.9861 46.1314 42.4205 46.1115C44.0021 46.0388 46.7451 46.0024 50.6497 46.0024V46.0024C50.7847 46.0024 50.8919 46.116 50.8842 46.2508L50.4519 53.8163C50.4242 54.3004 50.8093 54.7082 51.2942 54.7082L56.6403 54.7082C57.0907 54.7082 57.4616 54.3546 57.4831 53.9048L57.8112 47.0467Z" fill="#FF005C"/>
<path d="M96.0505 69.1673C95.9627 69.5547 95.6086 69.8161 95.2117 69.7983L89.3478 69.5353L74.0797 68.7351C73.161 68.687 72.3846 68.6319 71.7506 68.5697C71.3775 68.5332 71.1054 68.2066 71.125 67.8323V67.8323C71.1327 67.6859 71.185 67.5454 71.275 67.4298L81.7134 54.0117C82.1293 53.4769 81.7769 52.6946 81.1009 52.6504C77.1749 52.3938 74.4433 52.1909 72.9059 52.0417C72.4282 51.9954 72.0994 51.5525 72.1795 51.0793L73.1089 45.588C73.1778 45.1808 73.5311 44.8829 73.9441 44.8887C75.42 44.9096 77.2093 44.9751 79.3117 45.0853C81.7666 45.2139 84.9485 45.4082 88.8575 45.6681C91.9604 45.8743 94.4511 46.0312 96.3296 46.1386C96.9504 46.1742 97.3118 46.8375 96.9863 47.3673C96.2078 48.6345 94.9028 50.6716 93.0712 53.4786C90.9997 56.658 89.2489 59.2298 87.8188 61.1941C87.4198 61.7423 87.7838 62.5236 88.4609 62.5591L91.4015 62.7132L94.9692 62.8012C95.5479 62.8315 96.0371 62.8588 96.4368 62.883C96.8941 62.9106 97.2214 63.3012 97.144 63.7528C97.0461 64.3237 96.8862 65.1581 96.6644 66.2559C96.4016 67.5507 96.197 68.5212 96.0505 69.1673Z" fill="#242958"/>
</g>
<rect x="0.5" y="0.5" width="107" height="107" rx="22.5" stroke="#E2E2E2"/>
<defs>
<linearGradient id="paint0_linear_80_105" x1="28.0031" y1="42.3577" x2="29.2662" y2="66.4597" gradientUnits="userSpaceOnUse">
<stop stop-color="#0084FF"/>
<stop offset="1" stop-color="#0084FF"/>
</linearGradient>
<clipPath id="clip0_80_105">
<rect width="108" height="108" rx="23" fill="white"/>
</clipPath>
</defs>
</svg>
