<svg width="108" height="108" viewBox="0 0 108 108" fill="none" xmlns="http://www.w3.org/2000/svg">
<g clip-path="url(#clip0_80_92)">
<rect width="108" height="108" rx="23.9013" fill="white"/>
<path d="M33.4705 66.235C33.1 66.2592 32.7604 66.0336 32.6337 65.6846L29.8903 58.1248C29.5985 57.3208 28.4334 57.4111 28.2691 58.2505L27.2106 63.6582L26.7247 65.8534C26.6473 66.2031 26.3584 66.4663 26.0021 66.5029C24.4016 66.6675 21.8226 66.8452 18.2649 67.0359C17.9033 67.0553 17.5689 66.8413 17.4354 66.5047L9.98348 47.7067L8.9991 44.7217C8.82896 44.2058 9.18363 43.6658 9.7247 43.6171L15.1361 43.1296L17.9175 42.9053C18.3116 42.8736 18.6749 43.1197 18.7915 43.4976L21.3436 51.7674C21.6025 52.6066 22.8116 52.541 22.9782 51.6787L24.5571 43.5079C24.6295 43.1334 24.9441 42.8541 25.3245 42.8265L31.3334 42.391C31.7084 42.3638 32.0562 42.588 32.1861 42.9409L35.0476 50.7109C35.3402 51.5053 36.4899 51.422 36.6649 50.5937L38.323 42.7447C38.4012 42.3746 38.7162 42.1018 39.0937 42.0772L46.1957 41.6143C46.7715 41.5768 47.2143 42.1154 47.066 42.6731L41.1263 65.0067C41.0429 65.3206 40.7869 65.5576 40.4649 65.5995C39.8193 65.6835 38.7556 65.7925 37.2736 65.9263C35.6717 66.0712 34.404 66.1741 33.4705 66.235Z" fill="url(#paint0_linear_80_92)"/>
<path d="M73.226 42.5528L75.2285 42.8108C75.6433 42.8642 75.9616 43.2149 75.9111 43.63C75.9066 43.6668 75.9017 43.7039 75.8965 43.7411L75.5239 45.8249L73.8817 64.6786C73.8405 65.1516 73.4173 65.4975 72.9456 65.4437L70.8167 65.2012C70.812 65.2006 70.8083 65.2002 70.8036 65.1996C70.6665 65.1816 68.1942 64.8583 63.3868 64.2294C62.955 64.1729 62.636 63.7966 62.687 63.3641C62.6991 63.2613 62.7129 63.1535 62.7283 63.0409C62.7351 62.9912 62.7377 62.9436 62.7364 62.8934C62.7152 62.1188 62.5969 55.1624 64.6763 42.3469C64.7465 41.9139 65.1386 41.6031 65.5755 41.6423C67.7398 41.8367 70.2899 42.1401 73.226 42.5528Z" fill="#FFB800"/>
<circle cx="71.0577" cy="33.49" r="6.22266" transform="rotate(8 71.0577 33.49)" fill="#FFB800"/>
<path d="M57.8112 47.0467C57.8331 46.5893 58.2158 46.2328 58.6736 46.2435L59.3169 46.2585L66.3449 46.0165C66.8345 45.9997 67.2354 46.4019 67.2171 46.8914L66.7797 58.5661L66.5229 69.9657C66.5127 70.4165 66.15 70.7796 65.6993 70.7902L57.9679 70.9727C57.4943 70.9839 57.1041 70.6034 57.1078 70.1296C57.1208 68.4975 57.1694 66.5572 57.2536 64.3088C57.2715 63.8299 56.8886 63.4311 56.4093 63.4311L51.1017 63.4311C50.6509 63.4311 50.2797 63.7854 50.2588 64.2357L49.9917 69.995C49.9714 70.4336 49.618 70.7834 49.1792 70.7991L41.7959 71.0642C41.3183 71.0813 40.9217 70.6991 40.9243 70.2213C40.934 68.441 40.9725 66.3483 41.0397 63.9432L41.3147 54.3156C41.3234 53.9628 41.3801 52.6256 41.4849 50.3041C41.5541 48.7611 41.6024 47.6338 41.6297 46.9222C41.6463 46.4876 41.9861 46.1314 42.4205 46.1115C44.0021 46.0388 46.7451 46.0024 50.6497 46.0024V46.0024C50.7847 46.0024 50.8919 46.116 50.8842 46.2508L50.4519 53.8163C50.4242 54.3004 50.8093 54.7082 51.2942 54.7082L56.6403 54.7082C57.0907 54.7082 57.4616 54.3546 57.4831 53.9048L57.8112 47.0467Z" fill="#FF005C"/>
<path d="M96.0505 69.1673C95.9627 69.5547 95.6086 69.8161 95.2117 69.7983L89.3478 69.5353L74.0797 68.7351C73.161 68.687 72.3846 68.6319 71.7506 68.5697C71.3775 68.5332 71.1054 68.2066 71.125 67.8323V67.8323C71.1327 67.6859 71.185 67.5454 71.275 67.4298L81.7134 54.0117C82.1293 53.4769 81.7769 52.6946 81.1009 52.6504C77.1749 52.3938 74.4433 52.1909 72.9059 52.0417C72.4282 51.9954 72.0994 51.5525 72.1795 51.0793L73.1089 45.588C73.1778 45.1808 73.5311 44.8829 73.9441 44.8887C75.42 44.9096 77.2093 44.9751 79.3117 45.0853C81.7666 45.2139 84.9485 45.4082 88.8575 45.6681C91.9604 45.8743 94.4511 46.0312 96.3296 46.1386C96.9504 46.1742 97.3118 46.8375 96.9863 47.3673C96.2078 48.6345 94.9028 50.6716 93.0712 53.4786C90.9997 56.658 89.2489 59.2298 87.8188 61.1941C87.4198 61.7423 87.7838 62.5236 88.4609 62.5591L91.4015 62.7132L94.9692 62.8012C95.5479 62.8315 96.0371 62.8588 96.4368 62.883C96.8941 62.9106 97.2214 63.3012 97.144 63.7528C97.0461 64.3237 96.8862 65.1581 96.6644 66.2559C96.4016 67.5507 96.197 68.5212 96.0505 69.1673Z" fill="#242958"/>
</g>
<defs>
<linearGradient id="paint0_linear_80_92" x1="28.0031" y1="42.3577" x2="29.2662" y2="66.4597" gradientUnits="userSpaceOnUse">
<stop stop-color="#0084FF"/>
<stop offset="1" stop-color="#0084FF"/>
</linearGradient>
<clipPath id="clip0_80_92">
<rect width="108" height="108" fill="white"/>
</clipPath>
</defs>
</svg>
